Coordinates
version=1
nRows=11
nColumns=63
inDegrees=yes

Units are S.I. units (second, meters, Newtons, ...)
If the header above contains a line with 'inDegrees', this indicates whether rotational values are in degrees (yes) or radians (no).

endheader
time	pelvis_tilt	pelvis_list	pelvis_rotation	pelvis_tx	pelvis_ty	pelvis_tz	hip_flexion_r	hip_adduction_r	hip_rotation_r	knee_angle_r	knee_angle_r_beta	ankle_angle_r	subtalar_angle_r	mtp_angle_r	hip_flexion_l	hip_adduction_l	hip_rotation_l	knee_angle_l	knee_angle_l_beta	ankle_angle_l	subtalar_angle_l	mtp_angle_l	L5_S1_Flex_Ext	L5_S1_Lat_Bending	L5_S1_axial_rotation	L4_L5_Flex_Ext	L4_L5_Lat_Bending	L4_L5_axial_rotation	L3_L4_Flex_Ext	L3_L4_Lat_Bending	L3_L4_axial_rotation	L2_L3_Flex_Ext	L2_L3_Lat_Bending	L2_L3_axial_rotation	L1_L2_Flex_Ext	L1_L2_Lat_Bending	L1_L2_axial_rotation	L1_T12_Flex_Ext	L1_T12_Lat_Bending	L1_T12_axial_rotation	Abs_r3	Abs_r2	Abs_r1	Abs_t1	Abs_t2	neck_flexion	neck_bending	neck_rotation	arm_flex_r	arm_add_r	arm_rot_r	elbow_flex_r	pro_sup_r	wrist_flex_r	wrist_dev_r	arm_flex_l	arm_add_l	arm_rot_l	elbow_flex_l	pro_sup_l	wrist_flex_l	wrist_dev_l
2.316667	4.226421	3.046347	88.786821	0.211918	0.983172	0.459686	-5.754633	7.268499	2.882751	0.511758	0.008932	18.052510	-15.063629	0.000000	-4.705075	-4.515031	7.293607	2.203077	0.038451	28.509709	-14.525118	0.000000	-0.482193	0.779731	1.054015	-0.895480	1.037042	1.119891	-0.792194	1.895837	1.119891	-0.551098	1.895837	0.922263	-0.447764	1.590027	0.856387	-0.275525	1.207803	0.790511	-3.444254	8.820470	5.862116	0.000000	0.000000	21.419946	-4.252351	-3.586791	-4.056691	-17.252839	35.621450	13.432871	4.335373	-5.303571	2.766806	5.910702	-16.251781	-290.157270	11.543054	7.922815	-8.288337	2.222566
2.333333	4.280342	3.261404	89.027116	0.211370	0.983570	0.459324	-6.029643	7.315029	2.647497	0.502767	0.008775	18.045449	-14.962370	0.000000	-4.933464	-4.571977	7.487054	2.180004	0.038048	28.451032	-14.490103	0.000000	-0.494240	0.791734	1.012385	-0.917854	1.053006	1.075659	-0.811988	1.925022	1.075659	-0.564867	1.925022	0.885837	-0.458952	1.614504	0.822563	-0.282409	1.226396	0.759289	-3.530310	8.956254	5.630581	0.000000	0.000000	21.046124	-4.017069	-3.589996	-4.273968	-17.075405	34.141032	13.676128	4.211669	-5.464098	3.594105	5.513267	-16.206413	-288.652311	11.505583	8.932252	-8.281011	1.878529
2.350000	4.313840	3.497392	89.255258	0.210887	0.984048	0.458965	-6.331686	7.341701	2.450293	0.478913	0.008359	18.030277	-14.870811	0.000000	-5.187431	-4.610716	7.634740	2.155029	0.037612	28.363801	-14.442464	0.000000	-0.507532	0.799113	0.970309	-0.942537	1.062820	1.030953	-0.833824	1.942963	1.030953	-0.580058	1.942963	0.849020	-0.471294	1.629551	0.788376	-0.290004	1.237826	0.727732	-3.625249	9.039722	5.396567	0.000000	0.000000	20.629999	-3.766204	-3.678429	-4.320763	-16.959577	34.299888	13.824596	4.276175	-5.693953	4.138823	5.186350	-15.919663	-290.359845	11.439480	9.983643	-8.225730	1.801564
2.366667	4.329345	3.742033	89.471346	0.210466	0.984571	0.458629	-6.643317	7.352488	2.347079	0.447289	0.007807	17.983653	-14.887013	0.000000	-5.453467	-4.634199	7.818863	2.124847	0.037086	28.249321	-14.468113	0.000000	-0.520824	0.802619	0.929066	-0.967223	1.067483	0.987133	-0.855663	1.951488	0.987133	-0.595250	1.951488	0.812933	-0.483638	1.636701	0.754866	-0.297599	1.243257	0.696800	-3.720197	9.079387	5.167188	0.000000	0.000000	20.179981	-3.501486	-3.823992	-4.161848	-16.912894	36.418491	13.850553	4.197474	-5.963363	4.413954	4.954175	-15.439104	-294.563859	11.312777	10.743634	-8.101806	1.856170
2.383333	4.316974	3.993085	89.670103	0.210131	0.985120	0.458393	-6.944197	7.336920	2.189003	0.436030	0.007610	17.979669	-14.790410	0.000000	-5.700494	-4.633610	7.868168	2.139033	0.037333	28.196426	-14.334991	0.000000	-0.535348	0.801237	0.898374	-0.994195	1.065645	0.954522	-0.879524	1.948127	0.954522	-0.611850	1.948127	0.786077	-0.497124	1.633882	0.729929	-0.305898	1.241116	0.673781	-3.823939	9.063749	4.996487	0.000000	0.000000	19.702057	-3.262078	-4.080356	-3.862812	-16.936329	39.825768	13.793655	4.329351	-6.271578	4.390752	4.979157	-14.570079	-304.104890	11.308601	9.102264	-7.942580	2.263770
2.400000	4.283358	4.230206	89.844061	0.209862	0.985654	0.458194	-7.224659	7.298100	2.081325	0.428061	0.007471	17.975708	-14.726147	0.000000	-5.932090	-4.611261	7.921805	2.157091	0.037648	28.141311	-14.244035	0.000000	-0.548660	0.795625	0.876850	-1.018917	1.058182	0.931653	-0.901394	1.934484	0.931653	-0.627064	1.934484	0.767244	-0.509486	1.622439	0.712440	-0.313504	1.232424	0.657637	-3.919024	9.000274	4.876776	0.000000	0.000000	19.222414	-3.043654	-4.434360	-3.431584	-17.033899	44.515542	13.656004	4.487337	-6.584840	4.063220	5.027990	-13.696419	-313.720982	11.163470	8.920471	-7.715970	2.600780
2.416667	4.230664	4.440517	89.999901	0.209647	0.986138	0.458024	-7.472215	7.236968	2.041603	0.422063	0.007366	18.000494	-14.684700	0.000000	-6.134487	-4.569168	7.985817	2.177745	0.038009	28.068889	-14.195196	0.000000	-0.559224	0.786099	0.863344	-1.038534	1.045511	0.917303	-0.918749	1.911320	0.917303	-0.639137	1.911320	0.755426	-0.519295	1.603012	0.701467	-0.319540	1.217667	0.647508	-3.994479	8.892505	4.801661	0.000000	0.000000	18.757577	-2.847046	-4.875822	-2.918085	-17.198495	50.024963	13.474660	4.676916	-6.865184	3.485727	5.112073	-12.845947	-323.062845	10.890928	9.939491	-7.430749	2.879055
2.433333	4.176671	4.641738	90.147828	0.209461	0.986587	0.457897	-7.703983	7.176291	2.029645	0.415963	0.007260	18.033942	-14.678409	0.000000	-6.328332	-4.527027	8.076322	2.194402	0.038300	27.992219	-14.181791	0.000000	-0.570167	0.775287	0.858863	-1.058857	1.031131	0.912542	-0.936727	1.885032	0.912542	-0.651644	1.885032	0.751505	-0.529457	1.580965	0.697826	-0.325793	1.200919	0.644148	-4.072644	8.770199	4.776740	0.000000	0.000000	18.317925	-2.663969	-5.369770	-2.364275	-17.418965	55.995891	13.273161	4.867537	-7.125293	2.706825	5.239717	-11.949657	-332.967329	10.520481	11.438165	-6.999996	3.163857
2.450000	4.117154	4.806116	90.284045	0.209296	0.986953	0.457753	-7.894143	7.108676	2.125419	0.409888	0.007154	18.094085	-14.768299	0.000000	-6.492043	-4.477710	8.234161	2.200624	0.038408	27.873371	-14.263053	0.000000	-0.576972	0.762936	0.859755	-1.071495	1.014705	0.913490	-0.947907	1.855004	0.913490	-0.659421	1.855004	0.752285	-0.535776	1.555780	0.698551	-0.329682	1.181789	0.644816	-4.121253	8.630490	4.781698	0.000000	0.000000	17.919538	-2.506785	-5.898302	-1.808009	-17.676855	62.136269	13.076180	5.028177	-7.339416	1.810676	5.379694	-11.141180	-341.920863	10.066563	14.247840	-6.608209	3.434343
2.466667	4.053924	4.923893	90.392464	0.209176	0.987212	0.457563	-8.035329	7.034096	2.307976	0.403963	0.007050	18.207581	-14.880629	0.000000	-6.618026	-4.421401	8.390899	2.198793	0.038376	27.741925	-14.356849	0.000000	-0.578193	0.749612	0.865602	-1.073762	0.996984	0.919702	-0.949913	1.822606	0.919702	-0.660816	1.822606	0.757402	-0.536910	1.528608	0.703301	-0.330379	1.161148	0.649201	-4.129972	8.479757	4.814217	0.000000	0.000000	17.581011	-2.384054	-6.431041	-1.310330	-17.922325	67.704388	12.919528	5.183475	-7.480367	0.934678	5.500521	-10.440601	-349.788911	9.574027	18.005140	-6.271095	3.703579
2.483333	4.002733	4.997591	90.484403	0.209065	0.987368	0.457302	-8.132591	6.971087	2.489989	0.399039	0.006965	18.380098	-14.929343	0.000000	-6.705549	-4.375214	8.503701	2.196176	0.038331	27.621800	-14.381231	0.000000	-0.573580	0.737899	0.871532	-1.065195	0.981406	0.926003	-0.942334	1.794128	0.926003	-0.655544	1.794128	0.762591	-0.532626	1.504724	0.708120	-0.327743	1.143006	0.653649	-4.097023	8.347264	4.847201	0.000000	0.000000	17.297214	-2.306036	-6.936299	-0.883400	-18.147134	72.601751	12.804244	5.249617	-7.570436	0.119359	5.566296	-9.835075	-356.741034	9.088697	22.440361	-6.071296	3.970111
